<svg width="32" height="32" viewBox="0 0 32 32" fill="none" xmlns="http://www.w3.org/2000/svg">
<g id="Group 2487557">
<rect id="Rectangle" width="32" height="32" rx="16" fill="#1943EF" fill-opacity="0.1"/>
<g id="Group">
<path id="Vector" d="M12.4382 15.9195C12.2886 15.639 11.9893 15.4707 11.6714 15.4707H10.6801C10.9233 12.7587 13.1863 10.6266 15.9544 10.6266C16.8521 10.6266 17.7312 10.851 18.5167 11.2999C18.9281 11.543 19.4518 11.3934 19.695 10.9632C19.9381 10.5518 19.7885 10.0281 19.3583 9.78495C18.3296 9.20516 17.1514 8.88721 15.9544 8.88721C12.2325 8.88721 9.20258 11.8049 8.97815 15.452H7.93078C7.61283 15.452 7.31358 15.6203 7.16396 15.9008C7.01433 16.1814 7.03303 16.518 7.20136 16.7799L9.07166 19.6601C9.23999 19.9033 9.50183 20.0529 9.80108 20.0529C10.1003 20.0529 10.3622 19.9033 10.5305 19.6601L12.4008 16.7799C12.5878 16.5367 12.5878 16.1814 12.4382 15.9195Z" fill="#1943EF"/>
<path id="Vector_2" d="M24.7089 15.0038L22.8386 12.1235C22.5207 11.6372 21.7165 11.6372 21.3985 12.1235L19.5095 15.0038C19.3412 15.2656 19.3225 15.6023 19.4721 15.8828C19.6217 16.1633 19.921 16.3317 20.2389 16.3317H21.2302C20.987 19.0436 18.724 21.1758 15.9559 21.1758C15.0769 21.1758 14.1792 20.9513 13.3936 20.5024C12.9822 20.278 12.4585 20.4276 12.2153 20.8391C11.9909 21.2506 12.1405 21.7742 12.552 22.0174C13.5994 22.5972 14.7589 22.8964 15.9559 22.8964C19.6778 22.8964 22.7077 19.9788 22.9509 16.3317H23.9795C24.2975 16.3317 24.5967 16.1633 24.7463 15.8828C24.8773 15.6023 24.8773 15.2656 24.7089 15.0038Z" fill="#1943EF"/>
</g>
</g>
</svg>
