<svg width="18" height="17" viewBox="0 0 18 17" fill="none" xmlns="http://www.w3.org/2000/svg">
<g id="Group" opacity="0.6">
<path id="Vector" d="M17.3993 15.3252H1.03903C0.906232 15.3252 0.773438 15.458 0.773438 15.5908C0.773438 16.361 1.41085 16.9984 2.18106 16.9984H16.2838C17.054 16.9984 17.6915 16.361 17.6915 15.5908C17.6649 15.458 17.5587 15.3252 17.3993 15.3252Z" fill="#73738D"/>
<path id="Vector_2" d="M16.3596 11.0505C15.7753 10.6256 14.9254 10.5725 14.2615 10.8912C13.5975 11.2099 12.8007 11.2099 12.1102 10.8912C11.5525 10.6256 10.8354 10.6256 10.2776 10.8912C9.61365 11.2099 8.81688 11.2099 8.12635 10.8912C7.56862 10.6256 6.85153 10.6256 6.29379 10.8912C5.62982 11.2099 4.83305 11.2099 4.14252 10.8912C3.5051 10.599 2.70834 10.6256 2.12404 10.9974C2.09748 10.9974 2.07092 11.024 2.07092 11.0505V14.7953H16.3596V11.0505Z" fill="#73738D"/>
<path id="Vector_3" d="M4.4084 10.4118C4.93958 10.6509 5.577 10.6509 6.08161 10.4118C6.79871 10.0666 7.67515 10.0666 8.36568 10.4118C8.89686 10.6509 9.53427 10.6509 10.0389 10.4118C10.756 10.0666 11.6324 10.0666 12.3495 10.4118C12.8807 10.6509 13.5181 10.6509 14.0227 10.4118C14.7398 10.0666 15.6428 10.0666 16.3334 10.4384V10.0931C16.3334 8.89796 15.3507 7.91528 14.1555 7.91528H4.27561C3.08046 7.91528 2.09778 8.89796 2.09778 10.0931V10.4384C2.78831 10.0931 3.66475 10.0666 4.4084 10.4118Z" fill="#73738D"/>
<path id="Vector_4" d="M13.3638 5.52199C13.3638 4.99081 12.9389 4.53931 12.3811 4.53931C11.8499 4.53931 11.3984 4.96425 11.3984 5.52199V7.38111H13.3638V5.52199Z" fill="#73738D"/>
<path id="Vector_5" d="M7.0408 5.52199C7.0408 4.99081 6.5893 4.53931 6.05812 4.53931C5.52694 4.53931 5.07544 4.96425 5.07544 5.52199V7.38111H7.0408V5.52199Z" fill="#73738D"/>
<path id="Vector_6" d="M10.1985 4.38527C10.1985 3.85409 9.74701 3.40259 9.21583 3.40259C8.68466 3.40259 8.23315 3.85409 8.23315 4.38527V7.38642H10.1985V4.38527Z" fill="#73738D"/>
<path id="Vector_7" d="M12.3813 3.84573C12.9125 3.84573 13.3374 3.42078 13.3374 2.88961C13.3374 2.46466 12.7797 1.5351 12.5938 1.26951C12.5406 1.18984 12.461 1.13672 12.3813 1.13672C12.3016 1.13672 12.1954 1.18984 12.1688 1.26951C11.9829 1.5351 11.4252 2.46466 11.4252 2.88961C11.4252 3.42078 11.8501 3.84573 12.3813 3.84573Z" fill="#73738D"/>
<path id="Vector_8" d="M6.05842 3.84573C6.58959 3.84573 7.01454 3.42078 7.01454 2.88961C7.01454 2.46466 6.4568 1.5351 6.27089 1.26951C6.21777 1.18984 6.13809 1.13672 6.05842 1.13672C5.97874 1.13672 5.8725 1.18984 5.84594 1.26951C5.66003 1.5351 5.10229 2.46466 5.10229 2.88961C5.10229 3.42078 5.52724 3.84573 6.05842 3.84573Z" fill="#73738D"/>
<path id="Vector_9" d="M9.2237 2.70901C9.75488 2.70901 10.1798 2.28407 10.1798 1.75289C10.1798 1.32795 9.62208 0.424942 9.43617 0.132795C9.40961 0.0531178 9.30338 0 9.2237 0C9.14402 0 9.03779 0.0531178 9.01123 0.132795C8.82532 0.398384 8.26758 1.32795 8.26758 1.75289C8.26758 2.25751 8.69252 2.70901 9.2237 2.70901Z" fill="#73738D"/>
</g>
</svg>
