<svg width="16" height="16" viewBox="0 0 16 16" fill="none" xmlns="http://www.w3.org/2000/svg">
<path id="Vector" opacity="0.6" d="M8.19531 0C3.87159 0 0.390625 3.51761 0.390625 7.80469C0.390625 12.1284 3.90823 15.6094 8.19531 15.6094C12.519 15.6094 16 12.0918 16 7.80469C16 3.48096 12.519 0 8.19531 0ZM11.6763 7.03521L8.41516 10.2963C8.19531 10.5162 7.86554 10.6627 7.5724 10.6627C7.27927 10.6627 6.94949 10.5528 6.72964 10.2963L4.71435 8.28103C4.23801 7.80469 4.23801 7.03521 4.71435 6.55887C5.19069 6.08253 5.96017 6.08253 6.43651 6.55887L7.60904 7.7314L9.99076 5.34969C10.4671 4.87335 11.2366 4.87335 11.7129 5.34969C12.1526 5.78939 12.1526 6.55887 11.6763 7.03521Z" fill="#73738D"/>
</svg>
