<svg width="32" height="32" viewBox="0 0 32 32" fill="none" xmlns="http://www.w3.org/2000/svg">
<g id="Group 2487557">
<rect id="Rectangle" width="32" height="32" rx="16" fill="#1943EF" fill-opacity="0.1"/>
<g id="Union">
<mask id="path-2-outside-1_35_261" maskUnits="userSpaceOnUse" x="7.88721" y="7" width="16" height="18" fill="black">
<rect fill="white" x="7.88721" y="7" width="16" height="18"/>
<path fill-rule="evenodd" clip-rule="evenodd" d="M16.9185 11.3468C16.9185 13.1922 18.4198 14.6934 20.2652 14.6934C22.1106 14.6934 23.6119 13.1922 23.6119 11.3468C23.6119 9.50137 22.1106 8 20.2652 8C18.4198 8 16.9185 9.50137 16.9185 11.3468ZM17.9225 11.3468C17.9225 10.0549 18.9733 9.00402 20.2652 9.00402C21.557 9.00402 22.6078 10.0549 22.6078 11.3468C22.6078 12.6385 21.557 13.6894 20.2652 13.6894C18.9733 13.6894 17.9225 12.6385 17.9225 11.3468ZM21.1027 22.0586H18.0821C18.0881 22.0897 18.0913 22.1219 18.0913 22.1548C18.0913 23.539 16.9649 24.6648 15.5813 24.6648C14.1978 24.6648 13.0712 23.539 13.0712 22.1548C13.0712 22.1219 13.0744 22.0897 13.0805 22.0586H10.0585C9.41262 22.0586 8.88721 21.5332 8.88721 20.8873C8.88721 20.5445 9.03649 20.22 9.2968 19.997C9.3136 19.9823 9.33161 19.969 9.35036 19.9568C10.3329 19.0994 10.8952 17.8658 10.8952 16.5632V14.6958C10.8952 12.1122 12.9976 10.0104 15.5806 10.0104C15.6877 10.0104 15.8035 10.0124 15.9107 10.0305C16.1843 10.076 16.3692 10.3351 16.3236 10.6081C16.2781 10.8812 16.0143 11.066 15.7459 11.0204C15.7025 11.0134 15.6556 11.0138 15.6111 11.0142L15.5806 11.0144C13.5512 11.0144 11.8993 12.6657 11.8993 14.6958V16.5632C11.8993 18.1804 11.1904 19.7106 9.95618 20.7607L9.95101 20.7649L9.95099 20.7649C9.94301 20.7714 9.93554 20.7774 9.92664 20.7835C9.90863 20.8063 9.89122 20.8411 9.89122 20.8873C9.89122 20.9782 9.96758 21.0546 10.0585 21.0546H21.1027C21.1938 21.0546 21.2701 20.9782 21.2701 20.8873C21.2701 20.8404 21.2527 20.8063 21.234 20.7835C21.2239 20.7761 21.2152 20.7688 21.2052 20.7607C19.9702 19.7099 19.2621 18.1804 19.2621 16.5632V15.8338C19.2621 15.5566 19.487 15.3318 19.7641 15.3318C20.0412 15.3318 20.2661 15.5566 20.2661 15.8338V16.5632C20.2661 17.8665 20.829 19.1007 21.8129 19.9589C21.831 19.9709 21.8484 19.9837 21.8644 19.9978C22.1249 20.22 22.2741 20.5445 22.2741 20.8873C22.2741 21.5332 21.7487 22.0586 21.1027 22.0586ZM14.066 22.0586H17.0965C17.0905 22.0897 17.0873 22.1219 17.0873 22.1548C17.0873 22.9855 16.4113 23.6608 15.5813 23.6608C14.7513 23.6608 14.0753 22.9855 14.0753 22.1548C14.0753 22.1219 14.0721 22.0897 14.066 22.0586Z"/>
</mask>
<path fill-rule="evenodd" clip-rule="evenodd" d="M16.9185 11.3468C16.9185 13.1922 18.4198 14.6934 20.2652 14.6934C22.1106 14.6934 23.6119 13.1922 23.6119 11.3468C23.6119 9.50137 22.1106 8 20.2652 8C18.4198 8 16.9185 9.50137 16.9185 11.3468ZM17.9225 11.3468C17.9225 10.0549 18.9733 9.00402 20.2652 9.00402C21.557 9.00402 22.6078 10.0549 22.6078 11.3468C22.6078 12.6385 21.557 13.6894 20.2652 13.6894C18.9733 13.6894 17.9225 12.6385 17.9225 11.3468ZM21.1027 22.0586H18.0821C18.0881 22.0897 18.0913 22.1219 18.0913 22.1548C18.0913 23.539 16.9649 24.6648 15.5813 24.6648C14.1978 24.6648 13.0712 23.539 13.0712 22.1548C13.0712 22.1219 13.0744 22.0897 13.0805 22.0586H10.0585C9.41262 22.0586 8.88721 21.5332 8.88721 20.8873C8.88721 20.5445 9.03649 20.22 9.2968 19.997C9.3136 19.9823 9.33161 19.969 9.35036 19.9568C10.3329 19.0994 10.8952 17.8658 10.8952 16.5632V14.6958C10.8952 12.1122 12.9976 10.0104 15.5806 10.0104C15.6877 10.0104 15.8035 10.0124 15.9107 10.0305C16.1843 10.076 16.3692 10.3351 16.3236 10.6081C16.2781 10.8812 16.0143 11.066 15.7459 11.0204C15.7025 11.0134 15.6556 11.0138 15.6111 11.0142L15.5806 11.0144C13.5512 11.0144 11.8993 12.6657 11.8993 14.6958V16.5632C11.8993 18.1804 11.1904 19.7106 9.95618 20.7607L9.95101 20.7649L9.95099 20.7649C9.94301 20.7714 9.93554 20.7774 9.92664 20.7835C9.90863 20.8063 9.89122 20.8411 9.89122 20.8873C9.89122 20.9782 9.96758 21.0546 10.0585 21.0546H21.1027C21.1938 21.0546 21.2701 20.9782 21.2701 20.8873C21.2701 20.8404 21.2527 20.8063 21.234 20.7835C21.2239 20.7761 21.2152 20.7688 21.2052 20.7607C19.9702 19.7099 19.2621 18.1804 19.2621 16.5632V15.8338C19.2621 15.5566 19.487 15.3318 19.7641 15.3318C20.0412 15.3318 20.2661 15.5566 20.2661 15.8338V16.5632C20.2661 17.8665 20.829 19.1007 21.8129 19.9589C21.831 19.9709 21.8484 19.9837 21.8644 19.9978C22.1249 20.22 22.2741 20.5445 22.2741 20.8873C22.2741 21.5332 21.7487 22.0586 21.1027 22.0586ZM14.066 22.0586H17.0965C17.0905 22.0897 17.0873 22.1219 17.0873 22.1548C17.0873 22.9855 16.4113 23.6608 15.5813 23.6608C14.7513 23.6608 14.0753 22.9855 14.0753 22.1548C14.0753 22.1219 14.0721 22.0897 14.066 22.0586Z" fill="#1943EF"/>
<path d="M18.0821 22.0586V21.7919H17.7586L17.8203 22.1095L18.0821 22.0586ZM13.0805 22.0586L13.3422 22.1095L13.4039 21.7919H13.0805V22.0586ZM9.2968 19.997L9.47027 20.1996L9.47251 20.1976L9.2968 19.997ZM9.35036 19.9568L9.49522 20.1807L9.51128 20.1703L9.5257 20.1577L9.35036 19.9568ZM15.9107 10.0305L15.8661 10.2934L15.867 10.2936L15.9107 10.0305ZM16.3236 10.6081L16.0605 10.5642L16.0605 10.5643L16.3236 10.6081ZM15.7459 11.0204L15.7906 10.7575L15.7887 10.7572L15.7459 11.0204ZM15.6111 11.0142L15.6128 11.2809L15.6137 11.2809L15.6111 11.0142ZM15.5806 11.0144V11.2811L15.5823 11.2811L15.5806 11.0144ZM9.95618 20.7607L10.1239 20.9681L10.129 20.9638L9.95618 20.7607ZM9.95101 20.7649L9.78318 20.5574L9.77567 20.564L9.95101 20.7649ZM9.95099 20.7649L10.1191 20.9722L10.1263 20.9658L9.95099 20.7649ZM9.92664 20.7835L9.77641 20.5632L9.74272 20.5861L9.71743 20.6181L9.92664 20.7835ZM21.234 20.7835L21.4399 20.6141L21.4186 20.5881L21.3914 20.5683L21.234 20.7835ZM21.2052 20.7607L21.0323 20.9639L21.038 20.9684L21.2052 20.7607ZM21.8129 19.9589L21.6377 20.1599L21.6507 20.1712L21.665 20.1808L21.8129 19.9589ZM21.8644 19.9978L21.6885 20.1982L21.6913 20.2006L21.8644 19.9978ZM17.0965 22.0586L17.3583 22.1095L17.42 21.7919H17.0965V22.0586ZM14.066 22.0586V21.7919H13.7426L13.8043 22.1095L14.066 22.0586ZM20.2652 14.4267C18.5671 14.4267 17.1851 13.0449 17.1851 11.3468H16.6518C16.6518 13.3394 18.2726 14.9601 20.2652 14.9601V14.4267ZM23.3452 11.3468C23.3452 13.0449 21.9633 14.4267 20.2652 14.4267V14.9601C22.2579 14.9601 23.8785 13.3394 23.8785 11.3468H23.3452ZM20.2652 8.26667C21.9633 8.26667 23.3452 9.64863 23.3452 11.3468H23.8785C23.8785 9.3541 22.2579 7.73333 20.2652 7.73333V8.26667ZM17.1851 11.3468C17.1851 9.64864 18.5671 8.26667 20.2652 8.26667V7.73333C18.2725 7.73333 16.6518 9.35409 16.6518 11.3468H17.1851ZM20.2652 8.73735C18.826 8.73735 17.6558 9.90757 17.6558 11.3468H18.1891C18.1891 10.2021 19.1206 9.27068 20.2652 9.27068V8.73735ZM22.8745 11.3468C22.8745 9.90758 21.7043 8.73735 20.2652 8.73735V9.27068C21.4097 9.27068 22.3412 10.2021 22.3412 11.3468H22.8745ZM20.2652 13.9561C21.7043 13.9561 22.8745 12.7858 22.8745 11.3468H22.3412C22.3412 12.4913 21.4097 13.4227 20.2652 13.4227V13.9561ZM17.6558 11.3468C17.6558 12.7858 18.826 13.9561 20.2652 13.9561V13.4227C19.1206 13.4227 18.1891 12.4913 18.1891 11.3468H17.6558ZM18.0821 22.3253H21.1027V21.7919H18.0821V22.3253ZM18.358 22.1548C18.358 22.1047 18.3532 22.0555 18.3439 22.0078L17.8203 22.1095C17.8231 22.1239 17.8246 22.1391 17.8246 22.1548H18.358ZM15.5813 24.9315C17.1121 24.9315 18.358 23.6863 18.358 22.1548H17.8246C17.8246 23.3917 16.8176 24.3982 15.5813 24.3982V24.9315ZM12.8046 22.1548C12.8046 23.6863 14.0506 24.9315 15.5813 24.9315V24.3982C14.345 24.3982 13.3379 23.3917 13.3379 22.1548H12.8046ZM12.8187 22.0078C12.8094 22.0555 12.8046 22.1047 12.8046 22.1548H13.3379C13.3379 22.1391 13.3394 22.1239 13.3422 22.1095L12.8187 22.0078ZM10.0585 22.3253H13.0805V21.7919H10.0585V22.3253ZM8.62054 20.8873C8.62054 21.6805 9.26535 22.3253 10.0585 22.3253V21.7919C9.5599 21.7919 9.15387 21.3859 9.15387 20.8873H8.62054ZM9.12335 19.7945C8.80383 20.0681 8.62054 20.4667 8.62054 20.8873H9.15387C9.15387 20.6223 9.26914 20.3718 9.47026 20.1996L9.12335 19.7945ZM9.2055 19.7329C9.17728 19.7512 9.14874 19.7722 9.1211 19.7964L9.47251 20.1976C9.47845 20.1924 9.48594 20.1867 9.49522 20.1807L9.2055 19.7329ZM10.6286 16.5632C10.6286 17.7885 10.0998 18.9489 9.17503 19.7559L9.5257 20.1577C10.5661 19.2498 11.1619 17.9431 11.1619 16.5632H10.6286ZM10.6286 14.6958V16.5632H11.1619V14.6958H10.6286ZM15.5806 9.74375C12.8504 9.74375 10.6286 11.9649 10.6286 14.6958H11.1619C11.1619 12.2595 13.1449 10.2771 15.5806 10.2771V9.74375ZM15.9552 9.76759C15.8237 9.74533 15.6878 9.74375 15.5806 9.74375V10.2771C15.6876 10.2771 15.7834 10.2794 15.8661 10.2934L15.9552 9.76759ZM16.5866 10.6521C16.6565 10.2337 16.3734 9.83708 15.9544 9.76746L15.867 10.2936C15.9952 10.3149 16.0819 10.4365 16.0605 10.5642L16.5866 10.6521ZM15.7013 11.2833C16.1144 11.3535 16.5168 11.0714 16.5866 10.6519L16.0605 10.5643C16.0394 10.691 15.9143 10.7785 15.7906 10.7575L15.7013 11.2833ZM15.6137 11.2809C15.6627 11.2804 15.6862 11.2809 15.7032 11.2837L15.7887 10.7572C15.7188 10.7459 15.6484 10.7472 15.6086 10.7476L15.6137 11.2809ZM15.5823 11.2811L15.6128 11.2809L15.6095 10.7476L15.5789 10.7478L15.5823 11.2811ZM12.1659 14.6958C12.1659 12.813 13.6985 11.2811 15.5806 11.2811V10.7478C13.404 10.7478 11.6326 12.5184 11.6326 14.6958H12.1659ZM12.1659 16.5632V14.6958H11.6326V16.5632H12.1659ZM10.129 20.9638C11.4225 19.8632 12.1659 18.2589 12.1659 16.5632H11.6326C11.6326 18.102 10.9582 19.558 9.78337 20.5576L10.129 20.9638ZM10.1187 20.9722L10.1239 20.968L9.78846 20.5534L9.7833 20.5576L10.1187 20.9722ZM10.1263 20.9658L10.1264 20.9658L9.77567 20.564L9.77565 20.564L10.1263 20.9658ZM10.0769 21.0038C10.0962 20.9906 10.1118 20.9778 10.1189 20.972L9.78304 20.5578C9.77866 20.5613 9.77708 20.5626 9.77582 20.5636C9.77496 20.5642 9.77533 20.5639 9.77641 20.5632L10.0769 21.0038ZM10.1579 20.8873C10.1579 20.9118 10.1478 20.9337 10.1359 20.9488L9.71743 20.6181C9.66942 20.6789 9.62456 20.7704 9.62456 20.8873H10.1579ZM10.0585 20.7879C10.0889 20.7879 10.1135 20.8007 10.1293 20.8165C10.1452 20.8323 10.1579 20.8569 10.1579 20.8873H9.62456C9.62456 21.1255 9.8203 21.3213 10.0585 21.3213V20.7879ZM21.1027 20.7879H10.0585V21.3213H21.1027V20.7879ZM21.0034 20.8873C21.0034 20.8569 21.0162 20.8323 21.032 20.8164C21.0479 20.8006 21.0725 20.7879 21.1027 20.7879V21.3213C21.3409 21.3213 21.5368 21.1256 21.5368 20.8873H21.0034ZM21.028 20.9529C21.0217 20.9452 21.0153 20.9352 21.0105 20.9229C21.0055 20.9101 21.0034 20.8976 21.0034 20.8873H21.5368C21.5368 20.769 21.4914 20.6766 21.4399 20.6141L21.028 20.9529ZM21.038 20.9684C21.0419 20.9716 21.0598 20.9865 21.0765 20.9987L21.3914 20.5683C21.391 20.5679 21.3897 20.567 21.3866 20.5645C21.385 20.5632 21.3833 20.5618 21.3808 20.5598C21.3785 20.5579 21.3755 20.5555 21.3724 20.5529L21.038 20.9684ZM18.9954 16.5632C18.9954 18.2589 19.7381 19.8625 21.0323 20.9638L21.378 20.5576C20.2024 19.5573 19.5287 18.102 19.5287 16.5632H18.9954ZM18.9954 15.8338V16.5632H19.5287V15.8338H18.9954ZM19.7641 15.0651C19.3397 15.0651 18.9954 15.4094 18.9954 15.8338H19.5287C19.5287 15.7039 19.6343 15.5984 19.7641 15.5984V15.0651ZM20.5328 15.8338C20.5328 15.4094 20.1885 15.0651 19.7641 15.0651V15.5984C19.8939 15.5984 19.9994 15.7039 19.9994 15.8338H20.5328ZM20.5328 16.5632V15.8338H19.9994V16.5632H20.5328ZM21.9882 19.7579C21.0621 18.9502 20.5328 17.7892 20.5328 16.5632H19.9994C19.9994 17.9439 20.5959 19.2513 21.6377 20.1599L21.9882 19.7579ZM22.0403 19.7973C22.0127 19.7731 21.985 19.7531 21.9609 19.737L21.665 20.1808C21.6769 20.1887 21.684 20.1943 21.6885 20.1982L22.0403 19.7973ZM22.5408 20.8873C22.5408 20.4667 22.3575 20.0679 22.0375 19.7949L21.6913 20.2006C21.8922 20.372 22.0075 20.6223 22.0075 20.8873H22.5408ZM21.1027 22.3253C21.896 22.3253 22.5408 21.6805 22.5408 20.8873H22.0075C22.0075 21.3859 21.6015 21.7919 21.1027 21.7919V22.3253ZM17.0965 21.7919H14.066V22.3253H17.0965V21.7919ZM17.354 22.1548C17.354 22.1391 17.3555 22.1239 17.3583 22.1095L16.8347 22.0078C16.8255 22.0555 16.8206 22.1047 16.8206 22.1548H17.354ZM15.5813 23.9275C16.5584 23.9275 17.354 23.1329 17.354 22.1548H16.8206C16.8206 22.8381 16.2641 23.3941 15.5813 23.3941V23.9275ZM13.8086 22.1548C13.8086 23.1329 14.6041 23.9275 15.5813 23.9275V23.3941C14.8985 23.3941 14.3419 22.8381 14.3419 22.1548H13.8086ZM13.8043 22.1095C13.8071 22.1239 13.8086 22.1391 13.8086 22.1548H14.3419C14.3419 22.1047 14.3371 22.0555 14.3278 22.0078L13.8043 22.1095Z" fill="#1943EF" mask="url(#path-2-outside-1_35_261)"/>
</g>
</g>
</svg>
