<svg width="32" height="32" viewBox="0 0 32 32" fill="none" xmlns="http://www.w3.org/2000/svg">
<g id="Group 2487557">
<rect id="Rectangle" width="32" height="32" rx="16" fill="#1943EF" fill-opacity="0.1"/>
<g id="Group">
<path id="Vector" d="M17.7605 21.4065L17.2859 19.5674C17.2266 19.3498 17.009 19.2114 16.7915 19.2707C16.574 19.3301 16.4356 19.5476 16.4949 19.7651L16.9695 21.624C16.4751 21.9009 16.1389 22.4151 16.1389 23.0083C16.1389 23.8983 16.8508 24.6102 17.7407 24.6102C18.6307 24.6102 19.3426 23.8983 19.3426 23.0083C19.3624 22.1382 18.6504 21.4263 17.7605 21.4065Z" fill="#1943EF"/>
<path id="Vector_2" d="M12.4217 16.8787L9.9102 17.7488C9.61357 17.3929 9.1785 17.1556 8.66433 17.1556C7.77443 17.1556 7.0625 17.8675 7.0625 18.7574C7.0625 19.6473 7.77443 20.3592 8.66433 20.3592C9.55424 20.3592 10.2662 19.6473 10.2662 18.7574C10.2662 18.6783 10.2464 18.5794 10.2464 18.5003L12.6788 17.65C12.8963 17.5709 12.9952 17.3533 12.9359 17.1358C12.8766 16.9183 12.6392 16.7996 12.4217 16.8787Z" fill="#1943EF"/>
<path id="Vector_3" d="M23.258 15.1597C22.5065 15.1597 21.8935 15.6738 21.7155 16.3462H19.7972C19.5797 16.3462 19.382 16.5242 19.382 16.7417C19.382 16.9593 19.5599 17.1372 19.7972 17.1372H21.6957C21.8737 17.8294 22.5065 18.3238 23.2382 18.3238C24.1281 18.3238 24.8401 17.6119 24.8401 16.7219C24.8401 15.832 24.1479 15.1597 23.258 15.1597Z" fill="#1943EF"/>
<path id="Vector_4" d="M16.1409 18.836C17.6263 18.836 18.8304 17.6407 18.8304 16.1663C18.8304 14.6919 17.6263 13.4966 16.1409 13.4966C14.6555 13.4966 13.4514 14.6919 13.4514 16.1663C13.4514 17.6407 14.6555 18.836 16.1409 18.836Z" fill="#1943EF"/>
<path id="Vector_5" d="M13.7086 13.1834L12.8384 12.5308C12.9175 12.333 12.9571 12.1353 12.9571 11.9177C12.9571 11.0278 12.2452 10.3159 11.3552 10.3159C10.4653 10.3159 9.75342 11.0278 9.75342 11.9177C9.75342 12.8077 10.4653 13.5196 11.3552 13.5196C11.731 13.5196 12.0672 13.3812 12.344 13.1834L13.2142 13.8558C13.2933 13.9151 13.3724 13.9349 13.4515 13.9349C13.5701 13.9349 13.6888 13.8755 13.7679 13.7767C13.9261 13.5789 13.8865 13.3218 13.7086 13.1834Z" fill="#1943EF"/>
<path id="Vector_6" d="M17.8191 13.3394C17.8784 13.379 17.9575 13.3988 18.0366 13.3988C18.1751 13.3988 18.3135 13.3197 18.3926 13.201L19.6582 11.1048C19.8362 11.1641 20.0142 11.2037 20.1922 11.2037C21.0821 11.2037 21.794 10.4917 21.794 9.60183C21.794 8.71193 21.0821 8 20.1922 8C19.3023 8 18.5903 8.71193 18.5903 9.60183C18.5903 9.99735 18.7486 10.3533 18.9859 10.6499L17.7004 12.7857C17.562 12.9637 17.6213 13.2208 17.8191 13.3394Z" fill="#1943EF"/>
</g>
</g>
</svg>
