<svg width="68" height="64" viewBox="0 0 68 64" fill="none" xmlns="http://www.w3.org/2000/svg">
<g id="Group">
<g id="Group_2">
<path id="Vector" d="M1.40391 63.0969C2.1771 63.0969 2.80391 62.4701 2.80391 61.6969C2.80391 60.9237 2.1771 60.2969 1.40391 60.2969C0.630708 60.2969 0.00390625 60.9237 0.00390625 61.6969C0.00390625 62.4701 0.630708 63.0969 1.40391 63.0969Z" fill="#64CCE3"/>
<path id="Vector_2" d="M1.40391 51.0014C2.1771 51.0014 2.80391 50.3746 2.80391 49.6014C2.80391 48.8282 2.1771 48.2014 1.40391 48.2014C0.630708 48.2014 0.00390625 48.8282 0.00390625 49.6014C0.00390625 50.3746 0.630708 51.0014 1.40391 51.0014Z" fill="#64CCE3"/>
<path id="Vector_3" d="M1.40391 38.9003C2.1771 38.9003 2.80391 38.2735 2.80391 37.5003C2.80391 36.7271 2.1771 36.1003 1.40391 36.1003C0.630708 36.1003 0.00390625 36.7271 0.00390625 37.5003C0.00390625 38.2735 0.630708 38.9003 1.40391 38.9003Z" fill="#64CCE3"/>
<path id="Vector_4" d="M1.40391 26.9007C2.1771 26.9007 2.80391 26.2739 2.80391 25.5007C2.80391 24.7275 2.1771 24.1007 1.40391 24.1007C0.630708 24.1007 0.00390625 24.7275 0.00390625 25.5007C0.00390625 26.2739 0.630708 26.9007 1.40391 26.9007Z" fill="#64CCE3"/>
<path id="Vector_5" d="M1.40391 14.7996C2.1771 14.7996 2.80391 14.1728 2.80391 13.3996C2.80391 12.6264 2.1771 11.9996 1.40391 11.9996C0.630708 11.9996 0.00390625 12.6264 0.00390625 13.3996C0.00390625 14.1728 0.630708 14.7996 1.40391 14.7996Z" fill="#64CCE3"/>
<path id="Vector_6" d="M1.40488 2.8C2.17808 2.8 2.80488 2.1732 2.80488 1.4C2.80488 0.626801 2.17808 0 1.40488 0C0.631684 0 0.00488281 0.626801 0.00488281 1.4C0.00488281 2.1732 0.631684 2.8 1.40488 2.8Z" fill="#64CCE3"/>
</g>
<g id="Group_3">
<path id="Vector_7" d="M66.2039 63.0969C66.9771 63.0969 67.6039 62.4701 67.6039 61.6969C67.6039 60.9237 66.9771 60.2969 66.2039 60.2969C65.4307 60.2969 64.8039 60.9237 64.8039 61.6969C64.8039 62.4701 65.4307 63.0969 66.2039 63.0969Z" fill="#64CCE3"/>
<path id="Vector_8" d="M66.2039 51.0014C66.9771 51.0014 67.6039 50.3746 67.6039 49.6014C67.6039 48.8282 66.9771 48.2014 66.2039 48.2014C65.4307 48.2014 64.8039 48.8282 64.8039 49.6014C64.8039 50.3746 65.4307 51.0014 66.2039 51.0014Z" fill="#64CCE3"/>
<path id="Vector_9" d="M66.2039 38.9003C66.9771 38.9003 67.6039 38.2735 67.6039 37.5003C67.6039 36.7271 66.9771 36.1003 66.2039 36.1003C65.4307 36.1003 64.8039 36.7271 64.8039 37.5003C64.8039 38.2735 65.4307 38.9003 66.2039 38.9003Z" fill="#64CCE3"/>
<path id="Vector_10" d="M66.2039 26.9007C66.9771 26.9007 67.6039 26.2739 67.6039 25.5007C67.6039 24.7275 66.9771 24.1007 66.2039 24.1007C65.4307 24.1007 64.8039 24.7275 64.8039 25.5007C64.8039 26.2739 65.4307 26.9007 66.2039 26.9007Z" fill="#64CCE3"/>
<path id="Vector_11" d="M66.2039 14.7996C66.9771 14.7996 67.6039 14.1728 67.6039 13.3996C67.6039 12.6264 66.9771 11.9996 66.2039 11.9996C65.4307 11.9996 64.8039 12.6264 64.8039 13.3996C64.8039 14.1728 65.4307 14.7996 66.2039 14.7996Z" fill="#64CCE3"/>
<path id="Vector_12" d="M66.2038 2.80049C66.977 2.80049 67.6038 2.17369 67.6038 1.40049C67.6038 0.62729 66.977 0.000488281 66.2038 0.000488281C65.4306 0.000488281 64.8038 0.62729 64.8038 1.40049C64.8038 2.17369 65.4306 2.80049 66.2038 2.80049Z" fill="#64CCE3"/>
</g>
<g id="Group_4">
<path id="Vector_13" d="M53.3034 63.0974C54.0766 63.0974 54.7034 62.4706 54.7034 61.6974C54.7034 60.9242 54.0766 60.2974 53.3034 60.2974C52.5302 60.2974 51.9034 60.9242 51.9034 61.6974C51.9034 62.4706 52.5302 63.0974 53.3034 63.0974Z" fill="#64CCE3"/>
<path id="Vector_14" d="M53.3034 51.0019C54.0766 51.0019 54.7034 50.3751 54.7034 49.6019C54.7034 48.8287 54.0766 48.2019 53.3034 48.2019C52.5302 48.2019 51.9034 48.8287 51.9034 49.6019C51.9034 50.3751 52.5302 51.0019 53.3034 51.0019Z" fill="#64CCE3"/>
<path id="Vector_15" d="M53.3034 38.9008C54.0766 38.9008 54.7034 38.274 54.7034 37.5008C54.7034 36.7276 54.0766 36.1008 53.3034 36.1008C52.5302 36.1008 51.9034 36.7276 51.9034 37.5008C51.9034 38.274 52.5302 38.9008 53.3034 38.9008Z" fill="#64CCE3"/>
<path id="Vector_16" d="M53.3034 26.9012C54.0766 26.9012 54.7034 26.2744 54.7034 25.5012C54.7034 24.728 54.0766 24.1012 53.3034 24.1012C52.5302 24.1012 51.9034 24.728 51.9034 25.5012C51.9034 26.2744 52.5302 26.9012 53.3034 26.9012Z" fill="#64CCE3"/>
<path id="Vector_17" d="M53.3034 14.8001C54.0766 14.8001 54.7034 14.1733 54.7034 13.4001C54.7034 12.6269 54.0766 12.0001 53.3034 12.0001C52.5302 12.0001 51.9034 12.6269 51.9034 13.4001C51.9034 14.1733 52.5302 14.8001 53.3034 14.8001Z" fill="#64CCE3"/>
<path id="Vector_18" d="M53.3034 2.80049C54.0766 2.80049 54.7034 2.17369 54.7034 1.40049C54.7034 0.62729 54.0766 0.000488281 53.3034 0.000488281C52.5302 0.000488281 51.9034 0.62729 51.9034 1.40049C51.9034 2.17369 52.5302 2.80049 53.3034 2.80049Z" fill="#64CCE3"/>
</g>
<g id="Group_5">
<path id="Vector_19" d="M40.3055 63.0969C41.0787 63.0969 41.7055 62.4701 41.7055 61.6969C41.7055 60.9237 41.0787 60.2969 40.3055 60.2969C39.5323 60.2969 38.9055 60.9237 38.9055 61.6969C38.9055 62.4701 39.5323 63.0969 40.3055 63.0969Z" fill="#64CCE3"/>
<path id="Vector_20" d="M40.3055 51.0014C41.0787 51.0014 41.7055 50.3746 41.7055 49.6014C41.7055 48.8282 41.0787 48.2014 40.3055 48.2014C39.5323 48.2014 38.9055 48.8282 38.9055 49.6014C38.9055 50.3746 39.5323 51.0014 40.3055 51.0014Z" fill="#64CCE3"/>
<path id="Vector_21" d="M40.3055 38.9003C41.0787 38.9003 41.7055 38.2735 41.7055 37.5003C41.7055 36.7271 41.0787 36.1003 40.3055 36.1003C39.5323 36.1003 38.9055 36.7271 38.9055 37.5003C38.9055 38.2735 39.5323 38.9003 40.3055 38.9003Z" fill="#64CCE3"/>
<path id="Vector_22" d="M40.3055 26.9007C41.0787 26.9007 41.7055 26.2739 41.7055 25.5007C41.7055 24.7275 41.0787 24.1007 40.3055 24.1007C39.5323 24.1007 38.9055 24.7275 38.9055 25.5007C38.9055 26.2739 39.5323 26.9007 40.3055 26.9007Z" fill="#64CCE3"/>
<path id="Vector_23" d="M40.3055 14.7996C41.0787 14.7996 41.7055 14.1728 41.7055 13.3996C41.7055 12.6264 41.0787 11.9996 40.3055 11.9996C39.5323 11.9996 38.9055 12.6264 38.9055 13.3996C38.9055 14.1728 39.5323 14.7996 40.3055 14.7996Z" fill="#64CCE3"/>
<path id="Vector_24" d="M40.3052 2.80049C41.0784 2.80049 41.7052 2.17369 41.7052 1.40049C41.7052 0.62729 41.0784 0.000488281 40.3052 0.000488281C39.532 0.000488281 38.9052 0.62729 38.9052 1.40049C38.9052 2.17369 39.532 2.80049 40.3052 2.80049Z" fill="#64CCE3"/>
</g>
<g id="Group_6">
<path id="Vector_25" d="M27.308 63.0969C28.0812 63.0969 28.708 62.4701 28.708 61.6969C28.708 60.9237 28.0812 60.2969 27.308 60.2969C26.5348 60.2969 25.908 60.9237 25.908 61.6969C25.908 62.4701 26.5348 63.0969 27.308 63.0969Z" fill="#64CCE3"/>
<path id="Vector_26" d="M27.308 51.0014C28.0812 51.0014 28.708 50.3746 28.708 49.6014C28.708 48.8282 28.0812 48.2014 27.308 48.2014C26.5348 48.2014 25.908 48.8282 25.908 49.6014C25.908 50.3746 26.5348 51.0014 27.308 51.0014Z" fill="#64CCE3"/>
<path id="Vector_27" d="M27.308 38.9003C28.0812 38.9003 28.708 38.2735 28.708 37.5003C28.708 36.7271 28.0812 36.1003 27.308 36.1003C26.5348 36.1003 25.908 36.7271 25.908 37.5003C25.908 38.2735 26.5348 38.9003 27.308 38.9003Z" fill="#64CCE3"/>
<path id="Vector_28" d="M27.308 26.9007C28.0812 26.9007 28.708 26.2739 28.708 25.5007C28.708 24.7275 28.0812 24.1007 27.308 24.1007C26.5348 24.1007 25.908 24.7275 25.908 25.5007C25.908 26.2739 26.5348 26.9007 27.308 26.9007Z" fill="#64CCE3"/>
<path id="Vector_29" d="M27.308 14.7996C28.0812 14.7996 28.708 14.1728 28.708 13.3996C28.708 12.6264 28.0812 11.9996 27.308 11.9996C26.5348 11.9996 25.908 12.6264 25.908 13.3996C25.908 14.1728 26.5348 14.7996 27.308 14.7996Z" fill="#64CCE3"/>
<path id="Vector_30" d="M27.3073 2.8C28.0805 2.8 28.7073 2.1732 28.7073 1.4C28.7073 0.626801 28.0805 0 27.3073 0C26.5341 0 25.9073 0.626801 25.9073 1.4C25.9073 2.1732 26.5341 2.8 27.3073 2.8Z" fill="#64CCE3"/>
</g>
<g id="Group_7">
<path id="Vector_31" d="M14.3054 63.0969C15.0786 63.0969 15.7054 62.4701 15.7054 61.6969C15.7054 60.9237 15.0786 60.2969 14.3054 60.2969C13.5322 60.2969 12.9054 60.9237 12.9054 61.6969C12.9054 62.4701 13.5322 63.0969 14.3054 63.0969Z" fill="#64CCE3"/>
<path id="Vector_32" d="M14.3054 51.0014C15.0786 51.0014 15.7054 50.3746 15.7054 49.6014C15.7054 48.8282 15.0786 48.2014 14.3054 48.2014C13.5322 48.2014 12.9054 48.8282 12.9054 49.6014C12.9054 50.3746 13.5322 51.0014 14.3054 51.0014Z" fill="#64CCE3"/>
<path id="Vector_33" d="M14.3054 38.9003C15.0786 38.9003 15.7054 38.2735 15.7054 37.5003C15.7054 36.7271 15.0786 36.1003 14.3054 36.1003C13.5322 36.1003 12.9054 36.7271 12.9054 37.5003C12.9054 38.2735 13.5322 38.9003 14.3054 38.9003Z" fill="#64CCE3"/>
<path id="Vector_34" d="M14.3054 26.9007C15.0786 26.9007 15.7054 26.2739 15.7054 25.5007C15.7054 24.7275 15.0786 24.1007 14.3054 24.1007C13.5322 24.1007 12.9054 24.7275 12.9054 25.5007C12.9054 26.2739 13.5322 26.9007 14.3054 26.9007Z" fill="#64CCE3"/>
<path id="Vector_35" d="M14.3054 14.7996C15.0786 14.7996 15.7054 14.1728 15.7054 13.3996C15.7054 12.6264 15.0786 11.9996 14.3054 11.9996C13.5322 11.9996 12.9054 12.6264 12.9054 13.3996C12.9054 14.1728 13.5322 14.7996 14.3054 14.7996Z" fill="#64CCE3"/>
<path id="Vector_36" d="M14.3051 2.80049C15.0783 2.80049 15.7051 2.17369 15.7051 1.40049C15.7051 0.62729 15.0783 0.000488281 14.3051 0.000488281C13.5319 0.000488281 12.9051 0.62729 12.9051 1.40049C12.9051 2.17369 13.5319 2.80049 14.3051 2.80049Z" fill="#64CCE3"/>
</g>
</g>
</svg>
