<svg width="96" height="90" viewBox="0 0 96 90" fill="none" xmlns="http://www.w3.org/2000/svg">
<g id="Group">
<g id="Group_2">
<path id="Vector" d="M1.9 89.3776C2.94934 89.3776 3.8 88.527 3.8 87.4776C3.8 86.4283 2.94934 85.5776 1.9 85.5776C0.850659 85.5776 0 86.4283 0 87.4776C0 88.527 0.850659 89.3776 1.9 89.3776Z" fill="#64CCE3"/>
<path id="Vector_2" d="M1.9 72.3786C2.94934 72.3786 3.8 71.528 3.8 70.4786C3.8 69.4293 2.94934 68.5786 1.9 68.5786C0.850659 68.5786 0 69.4293 0 70.4786C0 71.528 0.850659 72.3786 1.9 72.3786Z" fill="#64CCE3"/>
<path id="Vector_3" d="M1.9 55.3796C2.94934 55.3796 3.8 54.5289 3.8 53.4796C3.8 52.4302 2.94934 51.5796 1.9 51.5796C0.850659 51.5796 0 52.4302 0 53.4796C0 54.5289 0.850659 55.3796 1.9 55.3796Z" fill="#64CCE3"/>
<path id="Vector_4" d="M1.9 38.279C2.94934 38.279 3.8 37.4283 3.8 36.379C3.8 35.3297 2.94934 34.479 1.9 34.479C0.850659 34.479 0 35.3297 0 36.379C0 37.4283 0.850659 38.279 1.9 38.279Z" fill="#64CCE3"/>
<path id="Vector_5" d="M1.9 21.28C2.94934 21.28 3.8 20.4293 3.8 19.38C3.8 18.3306 2.94934 17.48 1.9 17.48C0.850659 17.48 0 18.3306 0 19.38C0 20.4293 0.850659 21.28 1.9 21.28Z" fill="#64CCE3"/>
<path id="Vector_6" d="M1.9 4.17964C2.94934 4.17964 3.8 3.32898 3.8 2.27964C3.8 1.2303 2.94934 0.379639 1.9 0.379639C0.850659 0.379639 0 1.2303 0 2.27964C0 3.32898 0.850659 4.17964 1.9 4.17964Z" fill="#64CCE3"/>
</g>
<g id="Group_3">
<path id="Vector_7" d="M93.5938 89.3776C94.6432 89.3776 95.4939 88.527 95.4939 87.4776C95.4939 86.4283 94.6432 85.5776 93.5938 85.5776C92.5445 85.5776 91.6938 86.4283 91.6938 87.4776C91.6938 88.527 92.5445 89.3776 93.5938 89.3776Z" fill="#64CCE3"/>
<path id="Vector_8" d="M93.5938 72.3786C94.6432 72.3786 95.4939 71.528 95.4939 70.4786C95.4939 69.4293 94.6432 68.5786 93.5938 68.5786C92.5445 68.5786 91.6938 69.4293 91.6938 70.4786C91.6938 71.528 92.5445 72.3786 93.5938 72.3786Z" fill="#64CCE3"/>
<path id="Vector_9" d="M93.5938 55.3796C94.6432 55.3796 95.4939 54.5289 95.4939 53.4796C95.4939 52.4302 94.6432 51.5796 93.5938 51.5796C92.5445 51.5796 91.6938 52.4302 91.6938 53.4796C91.6938 54.5289 92.5445 55.3796 93.5938 55.3796Z" fill="#64CCE3"/>
<path id="Vector_10" d="M93.5938 38.279C94.6432 38.279 95.4939 37.4283 95.4939 36.379C95.4939 35.3297 94.6432 34.479 93.5938 34.479C92.5445 34.479 91.6938 35.3297 91.6938 36.379C91.6938 37.4283 92.5445 38.279 93.5938 38.279Z" fill="#64CCE3"/>
<path id="Vector_11" d="M93.5938 21.28C94.6432 21.28 95.4939 20.4293 95.4939 19.38C95.4939 18.3306 94.6432 17.48 93.5938 17.48C92.5445 17.48 91.6938 18.3306 91.6938 19.38C91.6938 20.4293 92.5445 21.28 93.5938 21.28Z" fill="#64CCE3"/>
<path id="Vector_12" d="M93.5938 4.17964C94.6432 4.17964 95.4939 3.32898 95.4939 2.27964C95.4939 1.2303 94.6432 0.379639 93.5938 0.379639C92.5445 0.379639 91.6938 1.2303 91.6938 2.27964C91.6938 3.32898 92.5445 4.17964 93.5938 4.17964Z" fill="#64CCE3"/>
</g>
<g id="Group_4">
<path id="Vector_13" d="M56.8974 89.3776C57.9468 89.3776 58.7974 88.527 58.7974 87.4776C58.7974 86.4283 57.9468 85.5776 56.8974 85.5776C55.8481 85.5776 54.9974 86.4283 54.9974 87.4776C54.9974 88.527 55.8481 89.3776 56.8974 89.3776Z" fill="#64CCE3"/>
<path id="Vector_14" d="M56.8974 72.3786C57.9468 72.3786 58.7974 71.528 58.7974 70.4786C58.7974 69.4293 57.9468 68.5786 56.8974 68.5786C55.8481 68.5786 54.9974 69.4293 54.9974 70.4786C54.9974 71.528 55.8481 72.3786 56.8974 72.3786Z" fill="#64CCE3"/>
<path id="Vector_15" d="M56.8974 55.3796C57.9468 55.3796 58.7974 54.5289 58.7974 53.4796C58.7974 52.4302 57.9468 51.5796 56.8974 51.5796C55.8481 51.5796 54.9974 52.4302 54.9974 53.4796C54.9974 54.5289 55.8481 55.3796 56.8974 55.3796Z" fill="#64CCE3"/>
<path id="Vector_16" d="M56.8974 38.279C57.9468 38.279 58.7974 37.4283 58.7974 36.379C58.7974 35.3297 57.9468 34.479 56.8974 34.479C55.8481 34.479 54.9974 35.3297 54.9974 36.379C54.9974 37.4283 55.8481 38.279 56.8974 38.279Z" fill="#64CCE3"/>
<path id="Vector_17" d="M56.8974 21.28C57.9468 21.28 58.7974 20.4293 58.7974 19.38C58.7974 18.3306 57.9468 17.48 56.8974 17.48C55.8481 17.48 54.9974 18.3306 54.9974 19.38C54.9974 20.4293 55.8481 21.28 56.8974 21.28Z" fill="#64CCE3"/>
<path id="Vector_18" d="M56.8972 4.17891C57.9465 4.17891 58.7972 3.32825 58.7972 2.27891C58.7972 1.22957 57.9465 0.378906 56.8972 0.378906C55.8479 0.378906 54.9972 1.22957 54.9972 2.27891C54.9972 3.32825 55.8479 4.17891 56.8972 4.17891Z" fill="#64CCE3"/>
</g>
<g id="Group_5">
<path id="Vector_19" d="M38.5963 89.3776C39.6456 89.3776 40.4963 88.527 40.4963 87.4776C40.4963 86.4283 39.6456 85.5776 38.5963 85.5776C37.5469 85.5776 36.6963 86.4283 36.6963 87.4776C36.6963 88.527 37.5469 89.3776 38.5963 89.3776Z" fill="#64CCE3"/>
<path id="Vector_20" d="M38.5963 72.3786C39.6456 72.3786 40.4963 71.528 40.4963 70.4786C40.4963 69.4293 39.6456 68.5786 38.5963 68.5786C37.5469 68.5786 36.6963 69.4293 36.6963 70.4786C36.6963 71.528 37.5469 72.3786 38.5963 72.3786Z" fill="#64CCE3"/>
<path id="Vector_21" d="M38.5963 55.3796C39.6456 55.3796 40.4963 54.5289 40.4963 53.4796C40.4963 52.4302 39.6456 51.5796 38.5963 51.5796C37.5469 51.5796 36.6963 52.4302 36.6963 53.4796C36.6963 54.5289 37.5469 55.3796 38.5963 55.3796Z" fill="#64CCE3"/>
<path id="Vector_22" d="M38.5963 38.279C39.6456 38.279 40.4963 37.4283 40.4963 36.379C40.4963 35.3297 39.6456 34.479 38.5963 34.479C37.5469 34.479 36.6963 35.3297 36.6963 36.379C36.6963 37.4283 37.5469 38.279 38.5963 38.279Z" fill="#64CCE3"/>
<path id="Vector_23" d="M38.5963 21.28C39.6456 21.28 40.4963 20.4293 40.4963 19.38C40.4963 18.3306 39.6456 17.48 38.5963 17.48C37.5469 17.48 36.6963 18.3306 36.6963 19.38C36.6963 20.4293 37.5469 21.28 38.5963 21.28Z" fill="#64CCE3"/>
<path id="Vector_24" d="M38.5963 4.17891C39.6456 4.17891 40.4963 3.32825 40.4963 2.27891C40.4963 1.22957 39.6456 0.378906 38.5963 0.378906C37.5469 0.378906 36.6963 1.22957 36.6963 2.27891C36.6963 3.32825 37.5469 4.17891 38.5963 4.17891Z" fill="#64CCE3"/>
</g>
<g id="Group_6">
<path id="Vector_25" d="M75.3 89.383C76.3494 89.383 77.2 88.5324 77.2 87.483C77.2 86.4337 76.3494 85.583 75.3 85.583C74.2507 85.583 73.4 86.4337 73.4 87.483C73.4 88.5324 74.2507 89.383 75.3 89.383Z" fill="#64CCE3"/>
<path id="Vector_26" d="M75.3 72.3786C76.3494 72.3786 77.2 71.528 77.2 70.4786C77.2 69.4293 76.3494 68.5786 75.3 68.5786C74.2507 68.5786 73.4 69.4293 73.4 70.4786C73.4 71.528 74.2507 72.3786 75.3 72.3786Z" fill="#64CCE3"/>
<path id="Vector_27" d="M75.3 55.3796C76.3494 55.3796 77.2 54.5289 77.2 53.4796C77.2 52.4302 76.3494 51.5796 75.3 51.5796C74.2507 51.5796 73.4 52.4302 73.4 53.4796C73.4 54.5289 74.2507 55.3796 75.3 55.3796Z" fill="#64CCE3"/>
<path id="Vector_28" d="M75.3 38.279C76.3494 38.279 77.2 37.4283 77.2 36.379C77.2 35.3297 76.3494 34.479 75.3 34.479C74.2507 34.479 73.4 35.3297 73.4 36.379C73.4 37.4283 74.2507 38.279 75.3 38.279Z" fill="#64CCE3"/>
<path id="Vector_29" d="M75.3 21.28C76.3494 21.28 77.2 20.4293 77.2 19.38C77.2 18.3306 76.3494 17.48 75.3 17.48C74.2507 17.48 73.4 18.3306 73.4 19.38C73.4 20.4293 74.2507 21.28 75.3 21.28Z" fill="#64CCE3"/>
<path id="Vector_30" d="M75.2997 4.17891C76.349 4.17891 77.1997 3.32825 77.1997 2.27891C77.1997 1.22957 76.349 0.378906 75.2997 0.378906C74.2503 0.378906 73.3997 1.22957 73.3997 2.27891C73.3997 3.32825 74.2503 4.17891 75.2997 4.17891Z" fill="#64CCE3"/>
</g>
<g id="Group_7">
<path id="Vector_31" d="M20.3025 89.383C21.3518 89.383 22.2025 88.5324 22.2025 87.483C22.2025 86.4337 21.3518 85.583 20.3025 85.583C19.2531 85.583 18.4025 86.4337 18.4025 87.483C18.4025 88.5324 19.2531 89.383 20.3025 89.383Z" fill="#64CCE3"/>
<path id="Vector_32" d="M20.3025 72.3786C21.3518 72.3786 22.2025 71.528 22.2025 70.4786C22.2025 69.4293 21.3518 68.5786 20.3025 68.5786C19.2531 68.5786 18.4025 69.4293 18.4025 70.4786C18.4025 71.528 19.2531 72.3786 20.3025 72.3786Z" fill="#64CCE3"/>
<path id="Vector_33" d="M20.3025 55.3796C21.3518 55.3796 22.2025 54.5289 22.2025 53.4796C22.2025 52.4302 21.3518 51.5796 20.3025 51.5796C19.2531 51.5796 18.4025 52.4302 18.4025 53.4796C18.4025 54.5289 19.2531 55.3796 20.3025 55.3796Z" fill="#64CCE3"/>
<path id="Vector_34" d="M20.3025 38.279C21.3518 38.279 22.2025 37.4283 22.2025 36.379C22.2025 35.3297 21.3518 34.479 20.3025 34.479C19.2531 34.479 18.4025 35.3297 18.4025 36.379C18.4025 37.4283 19.2531 38.279 20.3025 38.279Z" fill="#64CCE3"/>
<path id="Vector_35" d="M20.3025 21.28C21.3518 21.28 22.2025 20.4293 22.2025 19.38C22.2025 18.3306 21.3518 17.48 20.3025 17.48C19.2531 17.48 18.4025 18.3306 18.4025 19.38C18.4025 20.4293 19.2531 21.28 20.3025 21.28Z" fill="#64CCE3"/>
<path id="Vector_36" d="M20.3025 4.17964C21.3518 4.17964 22.2025 3.32898 22.2025 2.27964C22.2025 1.2303 21.3518 0.379639 20.3025 0.379639C19.2531 0.379639 18.4025 1.2303 18.4025 2.27964C18.4025 3.32898 19.2531 4.17964 20.3025 4.17964Z" fill="#64CCE3"/>
</g>
</g>
</svg>
