<svg width="75" height="76" viewBox="0 0 75 76" fill="none" xmlns="http://www.w3.org/2000/svg">
<g id="Group 2487632">
<rect id="Rectangle" y="0.0078125" width="75" height="75" rx="37.5" fill="#E4F7F2"/>
<g id="Group">
<path id="Vector" d="M29.2877 38.068C28.9459 37.4272 28.2623 37.0427 27.536 37.0427H25.2716C25.827 30.8477 30.9966 25.9772 37.3197 25.9772C39.3705 25.9772 41.3785 26.4899 43.1729 27.5153C44.1128 28.0707 45.3091 27.7289 45.8645 26.7462C46.4199 25.8063 46.0781 24.6101 45.0954 24.0546C42.7456 22.7302 40.054 22.0039 37.3197 22.0039C28.8177 22.0039 21.8965 28.6688 21.3838 36.9999H18.9912C18.2649 36.9999 17.5814 37.3845 17.2396 38.0253C16.8978 38.6662 16.9405 39.4352 17.325 40.0333L21.5974 46.6128C21.9819 47.1682 22.58 47.51 23.2636 47.51C23.9472 47.51 24.5453 47.1682 24.9298 46.6128L29.2022 40.0333C29.6295 39.4779 29.6295 38.6662 29.2877 38.068Z" fill="#26C296"/>
<path id="Vector_2" d="M57.3229 35.977L53.0505 29.3976C52.3242 28.2867 50.4871 28.2867 49.7608 29.3976L45.4457 35.977C45.0612 36.5752 45.0185 37.3442 45.3602 37.985C45.702 38.6259 46.3856 39.0104 47.1119 39.0104H49.3763C48.8209 45.2054 43.6513 50.0759 37.3282 50.0759C35.3202 50.0759 33.2694 49.5632 31.475 48.5378C30.5351 48.0251 29.3388 48.3669 28.7834 49.3068C28.2707 50.2468 28.6125 51.443 29.5525 51.9984C31.945 53.3229 34.5939 54.0064 37.3282 54.0064C45.8302 54.0064 52.7515 47.3415 53.3069 39.0104H55.6567C56.383 39.0104 57.0665 38.6259 57.4083 37.985C57.7074 37.3442 57.7074 36.5752 57.3229 35.977Z" fill="#26C296"/>
</g>
</g>
</svg>
