<svg width="36" height="36" viewBox="0 0 36 36" fill="none" xmlns="http://www.w3.org/2000/svg">
<g id="Group 2487541">
<rect id="Rectangle" width="36" height="36" rx="18" fill="#E4F7F2"/>
<g id="Union">
<mask id="path-2-outside-1_35_8" maskUnits="userSpaceOnUse" x="9.55627" y="8.60083" width="17" height="19" fill="black">
<rect fill="white" x="9.55627" y="8.60083" width="17" height="19"/>
<path fill-rule="evenodd" clip-rule="evenodd" d="M18.934 13.0919C18.934 15.0169 20.5001 16.5828 22.4251 16.5828C24.35 16.5828 25.916 15.0169 25.916 13.0919C25.916 11.1669 24.35 9.60083 22.4251 9.60083C20.5001 9.60083 18.934 11.1669 18.934 13.0919ZM19.9813 13.0919C19.9813 11.7443 21.0775 10.6481 22.4251 10.6481C23.7726 10.6481 24.8687 11.7443 24.8687 13.0919C24.8687 14.4394 23.7726 15.5355 22.4251 15.5355C21.0775 15.5355 19.9813 14.4394 19.9813 13.0919ZM23.2984 24.2638H20.1449C20.152 24.298 20.1557 24.3335 20.1557 24.3698C20.1557 25.8137 18.9807 26.9881 17.5374 26.9881C16.0943 26.9881 14.9192 25.8137 14.9192 24.3698C14.9192 24.3335 14.9229 24.298 14.9299 24.2638H11.7781C11.1043 24.2638 10.5563 23.7157 10.5563 23.042C10.5563 22.6844 10.712 22.3459 10.9835 22.1133C11.001 22.098 11.0198 22.0841 11.0394 22.0714C12.0643 21.177 12.6509 19.8902 12.6509 18.5315V16.5835C12.6509 13.8886 14.8439 11.6961 17.5383 11.6961C17.65 11.6961 17.7708 11.6982 17.8826 11.7171C18.168 11.7645 18.3608 12.0348 18.3133 12.3196C18.2658 12.6045 17.9907 12.7973 17.7107 12.7497C17.6654 12.7423 17.6165 12.7428 17.5701 12.7432L17.5383 12.7434C15.4214 12.7434 13.6982 14.4659 13.6982 16.5835V18.5315C13.6982 20.2184 12.9587 21.8146 11.6713 22.9099L11.6659 22.9143C11.6576 22.9211 11.6498 22.9274 11.6405 22.9337C11.6217 22.9575 11.6036 22.9938 11.6036 23.042C11.6036 23.1369 11.6832 23.2165 11.7781 23.2165H23.2984C23.3934 23.2165 23.4731 23.1369 23.4731 23.042C23.4731 22.993 23.4549 22.9575 23.4354 22.9337C23.4275 22.9279 23.4204 22.9222 23.4129 22.9161L23.4053 22.9099C22.1172 21.8138 21.3785 20.2184 21.3785 18.5315V17.7706C21.3785 17.4815 21.6131 17.2469 21.9021 17.2469C22.1912 17.2469 22.4258 17.4815 22.4258 17.7706V18.5315C22.4258 19.891 23.013 21.1784 24.0393 22.0736C24.0581 22.0861 24.0763 22.0994 24.093 22.1141C24.3647 22.3459 24.5204 22.6844 24.5204 23.042C24.5204 23.7157 23.9723 24.2638 23.2984 24.2638ZM15.9557 24.2638H19.1191C19.1121 24.298 19.1084 24.3335 19.1084 24.3698C19.1084 25.2363 18.4032 25.9408 17.5374 25.9408C16.6717 25.9408 15.9665 25.2363 15.9665 24.3698C15.9665 24.3335 15.9628 24.298 15.9557 24.2638Z"/>
</mask>
<path fill-rule="evenodd" clip-rule="evenodd" d="M18.934 13.0919C18.934 15.0169 20.5001 16.5828 22.4251 16.5828C24.35 16.5828 25.916 15.0169 25.916 13.0919C25.916 11.1669 24.35 9.60083 22.4251 9.60083C20.5001 9.60083 18.934 11.1669 18.934 13.0919ZM19.9813 13.0919C19.9813 11.7443 21.0775 10.6481 22.4251 10.6481C23.7726 10.6481 24.8687 11.7443 24.8687 13.0919C24.8687 14.4394 23.7726 15.5355 22.4251 15.5355C21.0775 15.5355 19.9813 14.4394 19.9813 13.0919ZM23.2984 24.2638H20.1449C20.152 24.298 20.1557 24.3335 20.1557 24.3698C20.1557 25.8137 18.9807 26.9881 17.5374 26.9881C16.0943 26.9881 14.9192 25.8137 14.9192 24.3698C14.9192 24.3335 14.9229 24.298 14.9299 24.2638H11.7781C11.1043 24.2638 10.5563 23.7157 10.5563 23.042C10.5563 22.6844 10.712 22.3459 10.9835 22.1133C11.001 22.098 11.0198 22.0841 11.0394 22.0714C12.0643 21.177 12.6509 19.8902 12.6509 18.5315V16.5835C12.6509 13.8886 14.8439 11.6961 17.5383 11.6961C17.65 11.6961 17.7708 11.6982 17.8826 11.7171C18.168 11.7645 18.3608 12.0348 18.3133 12.3196C18.2658 12.6045 17.9907 12.7973 17.7107 12.7497C17.6654 12.7423 17.6165 12.7428 17.5701 12.7432L17.5383 12.7434C15.4214 12.7434 13.6982 14.4659 13.6982 16.5835V18.5315C13.6982 20.2184 12.9587 21.8146 11.6713 22.9099L11.6659 22.9143C11.6576 22.9211 11.6498 22.9274 11.6405 22.9337C11.6217 22.9575 11.6036 22.9938 11.6036 23.042C11.6036 23.1369 11.6832 23.2165 11.7781 23.2165H23.2984C23.3934 23.2165 23.4731 23.1369 23.4731 23.042C23.4731 22.993 23.4549 22.9575 23.4354 22.9337C23.4275 22.9279 23.4204 22.9222 23.4129 22.9161L23.4053 22.9099C22.1172 21.8138 21.3785 20.2184 21.3785 18.5315V17.7706C21.3785 17.4815 21.6131 17.2469 21.9021 17.2469C22.1912 17.2469 22.4258 17.4815 22.4258 17.7706V18.5315C22.4258 19.891 23.013 21.1784 24.0393 22.0736C24.0581 22.0861 24.0763 22.0994 24.093 22.1141C24.3647 22.3459 24.5204 22.6844 24.5204 23.042C24.5204 23.7157 23.9723 24.2638 23.2984 24.2638ZM15.9557 24.2638H19.1191C19.1121 24.298 19.1084 24.3335 19.1084 24.3698C19.1084 25.2363 18.4032 25.9408 17.5374 25.9408C16.6717 25.9408 15.9665 25.2363 15.9665 24.3698C15.9665 24.3335 15.9628 24.298 15.9557 24.2638Z" fill="#26C296"/>
<path d="M20.1449 24.2638V23.9856H19.8037L19.8725 24.3199L20.1449 24.2638ZM14.9299 24.2638L15.2024 24.3199L15.2712 23.9856H14.9299V24.2638ZM10.9835 22.1133L11.1645 22.3246L11.1668 22.3226L10.9835 22.1133ZM11.0394 22.0714L11.1905 22.3049L11.2073 22.2941L11.2223 22.281L11.0394 22.0714ZM17.8826 11.7171L17.8361 11.9914L17.837 11.9915L17.8826 11.7171ZM18.3133 12.3196L18.0389 12.2738L18.0389 12.274L18.3133 12.3196ZM17.7107 12.7497L17.7573 12.4755L17.7553 12.4751L17.7107 12.7497ZM17.5701 12.7432L17.5719 13.0214L17.5727 13.0214L17.5701 12.7432ZM17.5383 12.7434V13.0216L17.54 13.0216L17.5383 12.7434ZM11.6713 22.9099L11.8463 23.1263L11.8516 23.1218L11.6713 22.9099ZM11.6659 22.9143L11.491 22.698L11.4907 22.6983L11.6659 22.9143ZM11.6405 22.9337L11.4838 22.7039L11.4487 22.7278L11.4223 22.7612L11.6405 22.9337ZM23.4354 22.9337L23.6502 22.757L23.6279 22.7299L23.5996 22.7092L23.4354 22.9337ZM23.4129 22.9161L23.5885 22.7003L23.5881 22.7L23.4129 22.9161ZM23.4053 22.9099L23.225 23.1218L23.2302 23.126L23.4053 22.9099ZM24.0393 22.0736L23.8565 22.2832L23.87 22.295L23.885 22.305L24.0393 22.0736ZM24.093 22.1141L23.9095 22.3232L23.9125 22.3257L24.093 22.1141ZM19.1191 24.2638L19.3916 24.3199L19.4604 23.9856H19.1191V24.2638ZM15.9557 24.2638V23.9856H15.6145L15.6833 24.3199L15.9557 24.2638ZM22.4251 16.3047C20.6537 16.3047 19.2122 14.8632 19.2122 13.0919H18.6558C18.6558 15.1705 20.3465 16.861 22.4251 16.861V16.3047ZM25.6378 13.0919C25.6378 14.8632 24.1964 16.3047 22.4251 16.3047V16.861C24.5037 16.861 26.1942 15.1705 26.1942 13.0919H25.6378ZM22.4251 9.87899C24.1964 9.87899 25.6378 11.3205 25.6378 13.0919H26.1942C26.1942 11.0133 24.5037 9.32267 22.4251 9.32267V9.87899ZM19.2122 13.0919C19.2122 11.3206 20.6537 9.87899 22.4251 9.87899V9.32267C20.3465 9.32267 18.6558 11.0133 18.6558 13.0919H19.2122ZM22.4251 10.37C20.9238 10.37 19.7031 11.5907 19.7031 13.0919H20.2595C20.2595 11.8979 21.2311 10.9263 22.4251 10.9263V10.37ZM25.1469 13.0919C25.1469 11.5907 23.9262 10.37 22.4251 10.37V10.9263C23.6189 10.9263 24.5905 11.8979 24.5905 13.0919H25.1469ZM22.4251 15.8137C23.9262 15.8137 25.1469 14.593 25.1469 13.0919H24.5905C24.5905 14.2857 23.6189 15.2574 22.4251 15.2574V15.8137ZM19.7031 13.0919C19.7031 14.593 20.9238 15.8137 22.4251 15.8137V15.2574C21.2311 15.2574 20.2595 14.2857 20.2595 13.0919H19.7031ZM20.1449 24.542H23.2984V23.9856H20.1449V24.542ZM20.4339 24.3698C20.4339 24.3145 20.4282 24.2603 20.4174 24.2077L19.8725 24.3199C19.8758 24.3358 19.8775 24.3524 19.8775 24.3698H20.4339ZM17.5374 27.2662C19.1343 27.2662 20.4339 25.9673 20.4339 24.3698H19.8775C19.8775 25.66 18.8271 26.7099 17.5374 26.7099V27.2662ZM14.641 24.3698C14.641 25.9674 15.9407 27.2662 17.5374 27.2662V26.7099C16.2479 26.7099 15.1973 25.66 15.1973 24.3698H14.641ZM14.6575 24.2077C14.6466 24.2603 14.641 24.3145 14.641 24.3698H15.1973C15.1973 24.3524 15.1991 24.3358 15.2024 24.3199L14.6575 24.2077ZM11.7781 24.542H14.9299V23.9856H11.7781V24.542ZM10.2781 23.042C10.2781 23.8694 10.9507 24.542 11.7781 24.542V23.9856C11.258 23.9856 10.8344 23.5621 10.8344 23.042H10.2781ZM10.8026 21.9021C10.4693 22.1875 10.2781 22.6032 10.2781 23.042H10.8344C10.8344 22.7656 10.9547 22.5043 11.1645 22.3246L10.8026 21.9021ZM10.8883 21.8379C10.8589 21.8569 10.8291 21.8788 10.8003 21.9041L11.1668 22.3226C11.173 22.3171 11.1808 22.3112 11.1905 22.3049L10.8883 21.8379ZM12.3727 18.5315C12.3727 19.8096 11.8211 21.02 10.8565 21.8618L11.2223 22.281C12.3076 21.3339 12.929 19.9709 12.929 18.5315H12.3727ZM12.3727 16.5835V18.5315H12.929V16.5835H12.3727ZM17.5383 11.418C14.6903 11.418 12.3727 13.7349 12.3727 16.5835H12.929C12.929 14.0422 14.9975 11.9743 17.5383 11.9743V11.418ZM17.929 11.4428C17.7919 11.4196 17.6501 11.418 17.5383 11.418V11.9743C17.6499 11.9743 17.7498 11.9767 17.8361 11.9914L17.929 11.4428ZM18.5876 12.3655C18.6605 11.929 18.3653 11.5153 17.9281 11.4427L17.837 11.9915C17.9708 12.0137 18.0611 12.1406 18.0389 12.2738L18.5876 12.3655ZM17.6641 13.0239C18.0951 13.0972 18.5148 12.8029 18.5876 12.3653L18.0389 12.274C18.0169 12.4061 17.8863 12.4974 17.7573 12.4755L17.6641 13.0239ZM17.5727 13.0214C17.6239 13.0209 17.6484 13.0214 17.6661 13.0243L17.7553 12.4751C17.6824 12.4633 17.609 12.4647 17.5675 12.4651L17.5727 13.0214ZM17.54 13.0216L17.5719 13.0214L17.5684 12.4651L17.5365 12.4653L17.54 13.0216ZM13.9764 16.5835C13.9764 14.6196 15.575 13.0216 17.5383 13.0216V12.4653C15.2678 12.4653 13.42 14.3122 13.42 16.5835H13.9764ZM13.9764 18.5315V16.5835H13.42V18.5315H13.9764ZM11.8516 23.1218C13.2009 21.9737 13.9764 20.3003 13.9764 18.5315H13.42C13.42 20.1366 12.7166 21.6554 11.4911 22.6981L11.8516 23.1218ZM11.8409 23.1306L11.8463 23.1262L11.4964 22.6937L11.491 22.698L11.8409 23.1306ZM11.7972 23.1635C11.8174 23.1498 11.8337 23.1364 11.8412 23.1303L11.4907 22.6983C11.4861 22.702 11.4845 22.7033 11.4832 22.7043C11.4823 22.705 11.4827 22.7046 11.4838 22.7039L11.7972 23.1635ZM11.8817 23.042C11.8817 23.0675 11.8712 23.0904 11.8588 23.1062L11.4223 22.7612C11.3722 22.8246 11.3254 22.92 11.3254 23.042H11.8817ZM11.7781 22.9383C11.8098 22.9383 11.8354 22.9516 11.852 22.9681C11.8685 22.9846 11.8817 23.0103 11.8817 23.042H11.3254C11.3254 23.2905 11.5296 23.4947 11.7781 23.4947V22.9383ZM23.2984 22.9383H11.7781V23.4947H23.2984V22.9383ZM23.1949 23.042C23.1949 23.0103 23.2082 22.9846 23.2247 22.9681C23.2413 22.9515 23.2669 22.9383 23.2984 22.9383V23.4947C23.5469 23.4947 23.7512 23.2906 23.7512 23.042H23.1949ZM23.2205 23.1104C23.214 23.1024 23.2073 23.092 23.2023 23.0791C23.1971 23.0657 23.1949 23.0528 23.1949 23.042H23.7512C23.7512 22.9186 23.7039 22.8223 23.6502 22.757L23.2205 23.1104ZM23.2374 23.1318C23.2441 23.1373 23.2566 23.1476 23.2711 23.1582L23.5996 22.7092C23.5993 22.709 23.5985 22.7084 23.5967 22.707C23.5947 22.7054 23.5925 22.7036 23.5885 22.7003L23.2374 23.1318ZM23.2302 23.126L23.2378 23.1322L23.5881 22.7L23.5805 22.6938L23.2302 23.126ZM21.1003 18.5315C21.1003 20.3002 21.875 21.973 23.2251 23.1218L23.5856 22.6981C22.3593 21.6546 21.6566 20.1366 21.6566 18.5315H21.1003ZM21.1003 17.7706V18.5315H21.6566V17.7706H21.1003ZM21.9021 16.9687C21.4594 16.9687 21.1003 17.3279 21.1003 17.7706H21.6566C21.6566 17.6351 21.7667 17.5251 21.9021 17.5251V16.9687ZM22.7039 17.7706C22.7039 17.3279 22.3448 16.9687 21.9021 16.9687V17.5251C22.0376 17.5251 22.1476 17.6351 22.1476 17.7706H22.7039ZM22.7039 18.5315V17.7706H22.1476V18.5315H22.7039ZM24.2221 21.8639C23.2561 21.0214 22.7039 19.8103 22.7039 18.5315H22.1476C22.1476 19.9717 22.7698 21.3354 23.8565 22.2832L24.2221 21.8639ZM24.2765 21.9051C24.2476 21.8797 24.2188 21.8589 24.1936 21.8421L23.885 22.305C23.8974 22.3133 23.9049 22.3191 23.9095 22.3231L24.2765 21.9051ZM24.7986 23.042C24.7986 22.6033 24.6074 22.1873 24.2735 21.9025L23.9125 22.3257C24.122 22.5044 24.2422 22.7655 24.2422 23.042H24.7986ZM23.2984 24.542C24.1259 24.542 24.7986 23.8694 24.7986 23.042H24.2422C24.2422 23.5621 23.8187 23.9856 23.2984 23.9856V24.542ZM19.1191 23.9856H15.9557V24.542H19.1191V23.9856ZM19.3866 24.3698C19.3866 24.3524 19.3883 24.3358 19.3916 24.3199L18.8467 24.2077C18.8359 24.2603 18.8302 24.3145 18.8302 24.3698H19.3866ZM17.5374 26.2189C18.5567 26.2189 19.3866 25.39 19.3866 24.3698H18.8302C18.8302 25.0826 18.2497 25.6626 17.5374 25.6626V26.2189ZM15.6883 24.3698C15.6883 25.39 16.5181 26.2189 17.5374 26.2189V25.6626C16.8252 25.6626 16.2446 25.0826 16.2446 24.3698H15.6883ZM15.6833 24.3199C15.6865 24.3358 15.6883 24.3524 15.6883 24.3698H16.2446C16.2446 24.3145 16.239 24.2603 16.2282 24.2077L15.6833 24.3199Z" fill="#26C296" mask="url(#path-2-outside-1_35_8)"/>
</g>
</g>
</svg>
