<svg width="36" height="36" viewBox="0 0 36 36" fill="none" xmlns="http://www.w3.org/2000/svg">
<g id="Group 2487632">
<rect id="Rectangle" width="36" height="36" rx="18" fill="#E4F7F2"/>
<g id="Group">
<path id="Vector" d="M14.0581 18.2691C13.8941 17.9615 13.566 17.777 13.2173 17.777H12.1305C12.397 14.8034 14.8784 12.4655 17.9135 12.4655C18.8979 12.4655 19.8617 12.7116 20.7231 13.2038C21.1742 13.4704 21.7484 13.3063 22.015 12.8347C22.2816 12.3835 22.1176 11.8093 21.6459 11.5427C20.518 10.907 19.226 10.5583 17.9135 10.5583C13.8326 10.5583 10.5104 13.7575 10.2643 17.7564H9.11586C8.76724 17.7564 8.43912 17.941 8.27506 18.2486C8.111 18.5562 8.13151 18.9254 8.31608 19.2125L10.3668 22.3706C10.5514 22.6372 10.8385 22.8013 11.1666 22.8013C11.4947 22.8013 11.7818 22.6372 11.9664 22.3706L14.0171 19.2125C14.2222 18.9459 14.2222 18.5562 14.0581 18.2691Z" fill="#26C296"/>
<path id="Vector_2" d="M27.5144 17.2631L25.4637 14.105C25.1151 13.5718 24.2332 13.5718 23.8846 14.105L21.8134 17.2631C21.6288 17.5502 21.6083 17.9193 21.7724 18.227C21.9364 18.5346 22.2645 18.7191 22.6132 18.7191H23.7C23.4334 21.6927 20.9521 24.0306 17.917 24.0306C16.9531 24.0306 15.9688 23.7845 15.1074 23.2923C14.6563 23.0462 14.0821 23.2103 13.8155 23.6614C13.5694 24.1126 13.7335 24.6868 14.1846 24.9534C15.333 25.5891 16.6045 25.9172 17.917 25.9172C21.9979 25.9172 25.3201 22.7181 25.5867 18.7191H26.7146C27.0633 18.7191 27.3914 18.5346 27.5554 18.227C27.699 17.9193 27.699 17.5502 27.5144 17.2631Z" fill="#26C296"/>
</g>
</g>
</svg>
