<svg width="36" height="36" viewBox="0 0 36 36" fill="none" xmlns="http://www.w3.org/2000/svg">
<g id="Group 2487633">
<rect id="Rectangle" width="36" height="36" rx="18" fill="#E4F7F2"/>
<g id="Group">
<path id="Vector" d="M19.5217 23.1149L19.0604 21.3273C19.0027 21.1159 18.7913 20.9814 18.5799 21.039C18.3684 21.0967 18.2339 21.3081 18.2915 21.5196L18.7529 23.3264C18.2723 23.5955 17.9456 24.0952 17.9456 24.6719C17.9456 25.5368 18.6375 26.2288 19.5025 26.2288C20.3675 26.2288 21.0594 25.5368 21.0594 24.6719C21.0786 23.8261 20.3867 23.1342 19.5217 23.1149Z" fill="#26C296"/>
<path id="Vector_2" d="M14.3322 18.7143L11.8911 19.5601C11.6027 19.2141 11.1799 18.9834 10.6801 18.9834C9.81514 18.9834 9.12317 19.6754 9.12317 20.5404C9.12317 21.4053 9.81514 22.0973 10.6801 22.0973C11.5451 22.0973 12.237 21.4053 12.237 20.5404C12.237 20.4635 12.2178 20.3674 12.2178 20.2905L14.5821 19.464C14.7935 19.3871 14.8896 19.1756 14.8319 18.9642C14.7743 18.7528 14.5436 18.6374 14.3322 18.7143Z" fill="#26C296"/>
<path id="Vector_3" d="M24.8659 17.04C24.1355 17.04 23.5396 17.5398 23.3666 18.1933H21.5022C21.2907 18.1933 21.0985 18.3663 21.0985 18.5778C21.0985 18.7892 21.2715 18.9622 21.5022 18.9622H23.3474C23.5204 19.6349 24.1355 20.1155 24.8467 20.1155C25.7117 20.1155 26.4036 19.4235 26.4036 18.5585C26.4036 17.6936 25.7309 17.04 24.8659 17.04Z" fill="#26C296"/>
<path id="Vector_4" d="M17.947 20.6163C19.3907 20.6163 20.5611 19.4545 20.5611 18.0214C20.5611 16.5883 19.3907 15.4265 17.947 15.4265C16.5033 15.4265 15.3329 16.5883 15.3329 18.0214C15.3329 19.4545 16.5033 20.6163 17.947 20.6163Z" fill="#26C296"/>
<path id="Vector_5" d="M15.5801 15.1162L14.7344 14.4819C14.8113 14.2897 14.8497 14.0975 14.8497 13.886C14.8497 13.0211 14.1577 12.3291 13.2928 12.3291C12.4278 12.3291 11.7358 13.0211 11.7358 13.886C11.7358 14.751 12.4278 15.443 13.2928 15.443C13.658 15.443 13.9847 15.3084 14.2538 15.1162L15.0996 15.7697C15.1765 15.8274 15.2534 15.8466 15.3302 15.8466C15.4456 15.8466 15.5609 15.789 15.6378 15.6929C15.7916 15.5006 15.7531 15.2508 15.5801 15.1162Z" fill="#26C296"/>
<path id="Vector_6" d="M19.5811 15.2726C19.6388 15.311 19.7157 15.3302 19.7925 15.3302C19.9271 15.3302 20.0616 15.2533 20.1385 15.138L21.3687 13.1005C21.5417 13.1582 21.7147 13.1966 21.8877 13.1966C22.7527 13.1966 23.4446 12.5047 23.4446 11.6397C23.4446 10.7747 22.7527 10.0828 21.8877 10.0828C21.0227 10.0828 20.3307 10.7747 20.3307 11.6397C20.3307 12.0241 20.4845 12.3701 20.7152 12.6584L19.4658 14.7344C19.3312 14.9073 19.3889 15.1572 19.5811 15.2726Z" fill="#26C296"/>
</g>
</g>
</svg>
