<svg width="16" height="15" viewBox="0 0 16 15" fill="none" xmlns="http://www.w3.org/2000/svg">
<g id="Group">
<path id="Vector" d="M9.97469 8.78474V8.91608C9.97469 9.90114 9.17022 10.7056 8.18515 10.7056C7.20009 10.7056 6.39562 9.90114 6.39562 8.91608V8.78474L0.715074 7.68475C0.60015 7.66833 0.485225 7.6355 0.386719 7.56982V12.528C0.386719 13.7429 1.37178 14.728 2.5867 14.728H13.8C15.0149 14.728 16 13.7429 16 12.528V7.56982C15.9015 7.61908 15.7866 7.65191 15.6716 7.68475L9.97469 8.78474Z" fill="#73738D"/>
<path id="Vector_2" d="M13.8164 3.11937H11.8135V2.29849C11.8135 1.03432 10.7792 0 9.51499 0H6.85531C5.59115 0 4.55683 1.03432 4.55683 2.29849V3.11937H2.55386C1.35537 3.11937 0.386719 4.08802 0.386719 5.28652V6.20591C0.386719 6.50143 0.600149 6.74769 0.879251 6.81337L6.39561 7.88052C6.41203 6.91187 7.20008 6.14024 8.18515 6.14024C9.1538 6.14024 9.95827 6.91187 9.97468 7.88052L15.4746 6.81337C15.7702 6.74769 15.9836 6.50143 15.9836 6.20591V5.2701C15.9836 4.08802 15.0149 3.11937 13.8164 3.11937ZM6.24786 2.28207C6.24786 1.95371 6.52696 1.69103 6.83889 1.69103H9.51499C9.84334 1.69103 10.106 1.97013 10.106 2.28207V3.10295H6.24786V2.28207Z" fill="#73738D"/>
<path id="Vector_3" d="M9.09074 8.91465V7.92959C9.09074 7.43706 8.6803 7.02661 8.18777 7.02661C7.69523 7.02661 7.28479 7.43706 7.28479 7.92959V8.91465C7.28479 9.40719 7.69523 9.81763 8.18777 9.81763C8.6803 9.81763 9.09074 9.40719 9.09074 8.91465Z" fill="#73738D"/>
</g>
</svg>
